<?xml version="1.0"?>
<svg xmlns="http://www.w3.org/2000/svg" id="bold_1_" enable-background="new 0 0 24 24" height="512px" viewBox="0 0 24 24" width="512px" class=""><g><path d="m12.75 5.289c2.459 0 4.46 2.001 4.46 4.461 0 .414.336.75.75.75h3.79c.414 0 .75-.336.75-.75 0-5.376-4.374-9.75-9.75-9.75-.414 0-.75.336-.75.75v3.789c0 .414.336.75.75.75z" data-original="#000000" class="active-path" data-old_color="#000000" fill="#0A9283"/><path d="m14.281 16.258c-.293-.293-.768-.293-1.061 0-.869.869-2.026 1.348-3.257 1.348-2.539 0-4.605-2.066-4.605-4.605s2.066-4.605 4.605-4.605c.414 0 .75-.336.75-.75v-3.896c0-.414-.336-.75-.75-.75-5.514 0-10 4.486-10 10s4.486 10 10 10c2.674 0 5.187-1.039 7.073-2.927.293-.293.293-.768 0-1.061z" data-original="#000000" class="active-path" data-old_color="#000000" fill="#0A9283"/><path d="m23.25 12.05h-3.644c-.414 0-.75.336-.75.75 0 1.14-.443 2.209-1.247 3.013-.141.141-.22.331-.22.53s.079.39.22.53l2.578 2.578c.141.141.332.22.53.22s.39-.079.53-.22c1.776-1.775 2.753-4.138 2.753-6.651 0-.414-.336-.75-.75-.75z" data-original="#000000" class="active-path" data-old_color="#000000" fill="#0A9283"/></g> </svg>
